<svg width="9" height="21" viewBox="0 0 9 21" fill="none" xmlns="http://www.w3.org/2000/svg">
<path fill-rule="evenodd" clip-rule="evenodd" d="M1.9322 10.2062V19.9794C1.9322 20.1031 2.0493 20.2268 2.1664 20.2268H5.62093C5.73804 20.2268 5.85514 20.1031 5.85514 19.9794V10.0206H8.37285C8.48995 10.0206 8.60705 9.89693 8.60705 9.77321L8.84126 6.80414C8.84126 6.68043 8.72416 6.55671 8.60705 6.55671H5.85514V4.39176C5.85514 3.89691 6.265 3.46392 6.73341 3.46392H8.66561C8.78271 3.46392 8.89981 3.34021 8.89981 3.2165V0.247423C8.89981 0.123712 8.78271 0 8.66561 0H5.38673C3.51308 0 1.9322 1.60825 1.9322 3.64949V6.55671H0.234206C0.117103 6.55671 0 6.61857 0 6.80414V9.77321C0 9.89693 0.117103 10.0206 0.234206 10.0206H1.9322V10.2062Z" fill="#C4C4C4"/>
</svg>
