<svg width="18" height="17" viewBox="0 0 18 17" fill="none" xmlns="http://www.w3.org/2000/svg">
<path d="M8.57199 4.37329C6.26608 4.37329 4.36121 6.24058 4.36121 8.50098C4.36121 10.7614 6.26608 12.6287 8.57199 12.6287C10.8779 12.6287 12.7828 10.7614 12.7828 8.50098C12.7828 6.24058 10.928 4.37329 8.57199 4.37329ZM8.57199 11.1545C7.06814 11.1545 5.86506 9.97515 5.86506 8.50098C5.86506 7.0268 7.06814 5.84746 8.57199 5.84746C10.0758 5.84746 11.2789 7.0268 11.2789 8.50098C11.2789 9.97515 10.0758 11.1545 8.57199 11.1545Z" fill="#C4C4C4"/>
<path d="M11.9807 0L5.16323 0C2.30591 0 0 2.26028 0 5.06106L0 11.7436C0 14.5444 2.30591 16.8047 5.16323 16.8047L11.9807 16.8047C14.838 16.8047 17.1439 14.5444 17.1439 11.7436L17.1439 5.06106C17.0938 2.26028 14.7879 0 11.9807 0ZM15.4897 11.7436C15.4897 13.66 13.8856 15.2323 11.9306 15.2323L5.16323 15.2323C3.20822 15.2323 1.60411 13.66 1.60411 11.7436L1.60411 5.06106C1.60411 3.14474 3.20822 1.57237 5.16323 1.57237L11.9807 1.57237C13.9357 1.57237 15.5398 3.14474 15.5398 5.06106L15.5398 11.7436H15.4897Z" fill="#C4C4C4"/>
<path d="M13.0835 5.06079C13.6372 5.06079 14.0861 4.62089 14.0861 4.07825C14.0861 3.5356 13.6372 3.0957 13.0835 3.0957C12.5298 3.0957 12.0809 3.5356 12.0809 4.07825C12.0809 4.62089 12.5298 5.06079 13.0835 5.06079Z" fill="#C4C4C4"/>
</svg>
