<svg width="17" height="17" viewBox="0 0 17 17" fill="none" xmlns="http://www.w3.org/2000/svg">
<g clip-path="url(#clip0)">
<path d="M16.9905 10.4415V16.6816C16.9905 16.867 16.8726 16.9906 16.6956 16.9906H13.5688C13.3919 16.9906 13.2739 16.867 13.2739 16.6816V10.8122C13.2739 9.26759 12.7429 8.21726 11.445 8.21726C10.4421 8.21726 9.85216 8.89688 9.55718 9.63829C9.43919 9.88542 9.43919 10.1943 9.43919 10.565V16.6816C9.43919 16.867 9.3212 16.9906 9.14422 16.9906H6.01748C5.8405 16.9906 5.72251 16.867 5.72251 16.6816C5.72251 15.137 5.7815 7.59942 5.72251 5.80769C5.89949 5.68412 6.01748 5.56056 6.13547 5.56056H9.20321C9.3802 5.56056 9.49819 5.68412 9.49819 5.86948V7.22872C9.49819 7.22872 9.49819 7.22872 9.49819 7.2905V7.22872C9.97015 6.42553 10.8551 5.31342 12.8019 5.31342C15.1617 5.25164 16.9905 6.9198 16.9905 10.4415ZM0.530952 16.9906H3.65768C3.83467 16.9906 3.95266 16.867 3.95266 16.6816V5.80769C3.89366 5.68412 3.77567 5.56056 3.59869 5.56056H0.530952C0.353967 5.56056 0.235977 5.68412 0.235977 5.80769V16.6816C0.235977 16.867 0.353967 16.9906 0.530952 16.9906Z" fill="#C4C4C4"/>
<path d="M1.94683 4.07773C3.02204 4.07773 3.89367 3.1649 3.89367 2.03887C3.89367 0.912831 3.02204 0 1.94683 0C0.871627 0 0 0.912831 0 2.03887C0 3.1649 0.871627 4.07773 1.94683 4.07773Z" fill="#C4C4C4"/>
</g>
<defs>
<clipPath id="clip0">
<rect width="16.9905" height="16.9905" fill="white"/>
</clipPath>
</defs>
</svg>
