<svg width="74" height="73" viewBox="0 0 74 73" fill="none" xmlns="http://www.w3.org/2000/svg">
<path d="M69.4677 13.1672C69.4677 10.0471 68.0745 7.08397 65.6804 5.08238L65.3468 4.78803C63.4629 3.21816 61.0688 2.35474 58.5962 2.35474C53.7688 2.35474 49.6478 5.61221 48.4312 10.1452L53.7099 8.37911C54.0239 8.28099 54.3379 8.22212 54.6715 8.22212C55.8097 8.22212 56.8497 8.86969 57.3796 9.89011L58.871 12.9514H60.2446C62.7368 12.9514 64.7581 14.9726 64.7581 17.4647C64.7581 18.3478 64.503 19.2308 63.9927 19.9765L62.4032 22.3706V27.0802L62.5013 27.1194C65.3271 28.5323 67.1129 31.4366 67.1129 34.5959V34.8314C70.4293 33.8699 71.8226 31.7702 71.8226 31.7702C70.2919 29.4742 69.4677 26.7662 69.4677 23.9993V13.1672Z" fill="#F0BC5E"/>
<path d="M20.7026 7.06441C21.0362 7.06441 21.3502 7.12328 21.6641 7.22139L26.9428 8.9875C25.7065 4.43486 21.5856 1.17737 16.7583 1.17737C14.2858 1.17737 11.9114 2.0408 10.008 3.61068C7.39807 5.8085 5.88708 9.02675 5.88708 12.4412V15.0315C5.88708 18.8777 7.81016 22.4688 11.0087 24.5882L12.4805 25.5693L12.9514 25.0199V21.1933L11.362 18.7992C10.8518 18.0535 10.5967 17.1901 10.5967 16.2874C10.5967 13.7953 12.6178 11.774 15.11 11.774H16.4836L18.0142 8.7324C18.5244 7.71198 19.5645 7.06441 20.7026 7.06441Z" fill="#F0BC5E"/>
<path d="M19.1134 45.7624L17.8771 30.8091L16.4839 29.4355L15.0906 30.8288L14.3056 40.2677L18.7798 45.5073C18.8779 45.625 18.9957 45.7035 19.1134 45.7624Z" fill="#F0BC5E"/>
<path d="M19.7218 52.9839H18.2696C16.9352 52.9839 15.6793 52.4344 14.7962 51.4532L13.5011 50.0207L12.9516 56.5161L16.4839 60.0484L20.0161 56.5161L19.7218 52.9839Z" fill="#F0BC5E"/>
<path d="M67.1129 48.2742V61.2258C67.1129 63.1685 65.5234 64.758 63.5806 64.758C61.6379 64.758 60.0484 63.1685 60.0484 61.2258V48.2742H54.1613V64.758H73V48.2742H67.1129Z" fill="#F0BC5E"/>
<path d="M72.8038 31.1427C71.3909 29.0234 70.6452 26.5704 70.6452 24.0194V13.1675C70.6452 9.67446 69.1145 6.39731 66.4261 4.16022L66.0729 3.86586C63.9927 2.13898 61.3239 1.17742 58.5962 1.17742C52.8073 1.17742 47.8228 5.49462 46.9987 11.2247L45.8212 19.5059L48.4901 20.8403L49.7852 24.7062H54.1613V27.6497L48.4116 31.9669C46.1156 33.6938 44.7419 36.4411 44.7419 39.3062C44.7419 39.8164 44.8008 40.3266 44.8793 40.8368L41.5433 44.7419H28.2581V36.8728C28.2581 32.2024 25.4519 28.0422 21.1935 26.2565V23.5484H25.5696L26.8648 19.6825L29.5336 18.3481L28.3562 10.0669C27.5516 4.3172 22.5476 0 16.7586 0C14.0309 0 11.3621 0.961559 9.26237 2.70806C6.37769 5.12177 4.70968 8.67366 4.70968 12.4414V15.0317C4.70968 19.1134 6.67204 22.9008 9.96882 25.2949L7.24113 25.8444C3.13979 26.6685 0.156989 30.2204 0.0196237 34.3806H0V73H28.2581V54.1613H42.9562C44.5261 54.1613 45.9979 53.5137 47.0968 52.4148V73H68.2903V64.7581H66.6616C67.6427 63.8946 68.2903 62.6387 68.2903 61.2258V35.6758C71.3712 34.518 72.7449 32.536 72.8038 32.4379L73.2355 31.7903L72.8038 31.1427ZM56.5161 24.5099C57.8898 24.0194 58.871 22.7242 58.871 21.1935V20.0161H56.5161V21.1935C56.5161 21.8411 55.9863 22.371 55.3387 22.371H51.4728L50.4132 19.1723L48.3723 18.1519L49.3143 11.5583C49.3339 11.3817 49.3731 11.2247 49.4124 11.0481L54.0632 9.49785C54.9266 9.22312 55.8882 9.61559 56.3003 10.4202L58.1449 14.1094H60.2446C62.0892 14.1094 63.5806 15.6008 63.5806 17.4454C63.5806 18.1126 63.3844 18.7406 63.0116 19.2901L61.2258 21.9785V25.5108L59.9699 27.375C59.6167 27.9048 59.028 28.2188 58.4 28.2188C57.36 28.2188 56.5161 27.375 56.5161 26.3349V24.5099ZM25.9032 36.8728V44.7419H19.6629L11.9116 35.6562L16.4839 31.1035L21.9785 36.5981L23.0382 30.2597C24.8239 31.9473 25.9032 34.3022 25.9032 36.8728ZM12.5591 27.1788L14.8159 29.4355L12.5984 31.653L11.9704 27.2965L12.5591 27.1788ZM20.1535 28.4151C20.4086 28.5132 20.6637 28.6113 20.9188 28.729L20.4282 31.6922L18.3481 29.6121L20.1535 28.4151ZM24.9417 17.9949L23.882 21.1935H20.0161C19.3685 21.1935 18.8387 20.6637 18.8387 20.0161V18.8387H16.4839V20.0161C16.4839 21.5468 17.4651 22.8419 18.8387 23.3325V26.4527L16.6409 27.9245L14.129 25.4126V20.8403L12.3433 18.1519C11.9704 17.6024 11.7742 16.9548 11.7742 16.2876C11.7742 14.443 13.2656 12.9516 15.1102 12.9516H17.2099L19.0546 9.26237C19.447 8.4578 20.4282 8.0457 21.2917 8.34005L25.9425 9.89032C25.9817 10.0669 26.021 10.2239 26.0406 10.4005L26.9825 16.9941L24.9417 17.9949ZM7.06452 15.0513V12.4414C7.06452 9.38011 8.41855 6.47581 10.7734 4.51344C12.461 3.12016 14.5804 2.35484 16.7586 2.35484C20.1731 2.35484 23.2148 4.23871 24.8632 7.04489L22.0374 6.10296C21.6056 5.96559 21.1543 5.8871 20.703 5.8871C19.1134 5.8871 17.6613 6.77016 16.9548 8.20269L15.7578 10.5968H15.1102C11.9704 10.5968 9.41936 13.1479 9.41936 16.2876C9.41936 17.4258 9.75296 18.5051 10.3809 19.447L11.7742 21.5468V23.7054L11.6565 23.6269C8.77178 21.7038 7.06452 18.5051 7.06452 15.0513ZM2.35484 70.6452V63.5806H25.9032V70.6452H2.35484ZM25.9032 61.2258H2.35484V39.5417L13.9328 52.2382C15.0513 53.4548 16.6409 54.1613 18.2892 54.1613H25.9032V61.2258ZM32.9677 51.8065H18.2696C17.2688 51.8065 16.3269 51.3944 15.6597 50.6487L3.27715 37.0495C2.68844 36.4019 2.35484 35.5581 2.35484 34.675C2.35484 31.5156 4.61156 28.7683 7.7121 28.1599L9.67446 27.7675L10.5772 34.1059L7.9672 31.0446L6.18145 32.5753L17.8968 46.2922C18.3481 46.822 18.9957 47.1164 19.6825 47.1164H33.007C34.3022 47.1164 35.3422 48.1565 35.3618 49.4516C35.3618 50.0796 35.1263 50.6879 34.675 51.1393C34.2237 51.5906 33.6349 51.8457 33.007 51.8457H32.9677V51.8065ZM45.5661 50.6487C44.8989 51.3747 43.9374 51.8065 42.9562 51.8065H37.0691C37.4812 51.0804 37.7167 50.2758 37.7167 49.4124C37.7167 48.5686 37.4616 47.7836 37.0495 47.0968H41.5629C42.2497 47.0968 42.8973 46.8024 43.3487 46.2726L45.7427 43.486L47.0968 46.2137V48.9806L45.5661 50.6487ZM65.9355 70.6452H49.4516V63.5806H54.1613V61.2258H49.4516V45.6446L47.8228 42.3675C47.3519 41.4255 47.0968 40.3659 47.0968 39.3258C47.0968 37.1868 48.1172 35.146 49.8245 33.8704L55.5938 29.5336C56.3395 30.2008 57.3207 30.6129 58.4 30.6129C59.8325 30.6129 61.1473 29.9065 61.9323 28.729L62.207 28.3169C64.503 29.5729 65.9355 31.9473 65.9355 34.5965V61.2258C65.9355 62.521 64.8758 63.5806 63.5806 63.5806C62.2855 63.5806 61.2258 62.521 61.2258 61.2258V39.6202C61.2258 38.0503 60.6175 36.5785 59.4989 35.4599L58.5177 34.4788L56.8497 36.1468L57.8309 37.128C58.4785 37.7755 58.871 38.6978 58.871 39.6202V61.2258C58.871 63.8161 60.9903 65.9355 63.5806 65.9355C64.4441 65.9355 65.2487 65.6804 65.9355 65.2879V70.6452ZM68.1726 33.1836C67.7605 30.3774 66.1121 27.9048 63.5806 26.3938V22.7438L64.9739 20.6441C65.6019 19.7022 65.9355 18.6032 65.9355 17.4847C65.9355 14.3449 63.3844 11.7938 60.2446 11.7938H59.597L58.4 9.39973C57.6936 7.96721 56.2414 7.08414 54.6519 7.08414C54.2005 7.08414 53.7492 7.16263 53.3175 7.3L50.4917 8.24194C52.1204 5.43575 55.1817 3.55188 58.5962 3.55188C60.7745 3.55188 62.9134 4.3172 64.5815 5.73011L64.9347 6.02446C67.0737 7.81022 68.31 10.4202 68.31 13.2067V24.039C68.31 26.747 69.0164 29.3766 70.3901 31.7118C69.9387 32.1043 69.2126 32.6734 68.1726 33.1836Z" fill="white"/>
</svg>
