<svg width="20" height="20" viewBox="0 0 20 20" fill="none" xmlns="http://www.w3.org/2000/svg">
<path d="M10 20C4.46886 20 0 15.4945 0 10C0 4.46886 4.46886 0 10 0C15.4945 0 20 4.46886 20 10C20 15.4945 15.4945 20 10 20ZM10 1.06227C5.09158 1.06227 1.06227 5.09158 1.06227 10C1.06227 14.9084 5.05494 18.9377 10 18.9377C14.9084 18.9377 18.9377 14.9451 18.9377 10C18.9377 5.09158 14.9084 1.06227 10 1.06227Z" fill="#C4C4C4"/>
<path fill-rule="evenodd" clip-rule="evenodd" d="M8.42491 10.0366L8.42491 15.8242C8.42491 15.8974 8.49817 15.9707 8.57143 15.9707H10.7326C10.8059 15.9707 10.8791 15.8974 10.8791 15.8242L10.8791 9.96336H12.4542C12.5275 9.96336 12.6007 9.8901 12.6007 9.81684L12.7473 8.05859C12.7473 7.98533 12.674 7.91207 12.6007 7.91207L10.8791 7.91207V6.66665C10.8791 6.37361 11.1355 6.1172 11.4286 6.1172H12.6374C12.7106 6.1172 12.7839 6.04394 12.7839 5.97068V4.21244C12.7839 4.13918 12.7106 4.06592 12.6374 4.06592H10.6227C9.41392 4.06592 8.46154 5.0183 8.46154 6.22709V7.9487H7.39927C7.32601 7.9487 7.25275 8.02196 7.25275 8.09522V9.85347C7.25275 9.92673 7.32601 9.99999 7.39927 9.99999H8.42491V10.0366Z" fill="#C4C4C4"/>
</svg>
