<svg width="20" height="20" viewBox="0 0 20 20" fill="none" xmlns="http://www.w3.org/2000/svg">
<path d="M10.0738 6.90039C8.3764 6.90039 6.97418 8.3026 6.97418 10C6.97418 11.6974 8.3764 13.0997 10.0738 13.0997C11.7712 13.0997 13.1734 11.6974 13.1734 10C13.1734 8.3026 11.8081 6.90039 10.0738 6.90039ZM10.0738 11.9926C8.9668 11.9926 8.08119 11.107 8.08119 10C8.08119 8.89301 8.9668 8.0074 10.0738 8.0074C11.1808 8.0074 12.0664 8.89301 12.0664 10C12.0664 11.107 11.1808 11.9926 10.0738 11.9926Z" fill="#C4C4C4"/>
<path d="M12.583 3.61621L7.56456 3.61621C5.46124 3.61621 3.76382 5.31363 3.76382 7.41695L3.76382 12.4354C3.76382 14.5387 5.46124 16.2361 7.56456 16.2361H12.583C14.6863 16.2361 16.3838 14.5387 16.3838 12.4354V7.41695C16.3469 5.31363 14.6494 3.61621 12.583 3.61621ZM15.166 12.4354C15.166 13.8745 13.9852 15.0553 12.5461 15.0553L7.56456 15.0553C6.12545 15.0553 4.94464 13.8745 4.94464 12.4354L4.94464 7.41695C4.94464 5.97783 6.12545 4.79702 7.56456 4.79702L12.583 4.79702C14.0221 4.79702 15.2029 5.97783 15.2029 7.41695L15.2029 12.4354H15.166Z" fill="#C4C4C4"/>
<path d="M13.3948 7.41693C13.8024 7.41693 14.1328 7.08651 14.1328 6.67892C14.1328 6.27133 13.8024 5.94092 13.3948 5.94092C12.9872 5.94092 12.6568 6.27133 12.6568 6.67892C12.6568 7.08651 12.9872 7.41693 13.3948 7.41693Z" fill="#C4C4C4"/>
<path d="M10 0C4.50185 0 0 4.50185 0 10C0 15.5351 4.50185 20 10 20C15.5351 20 20 15.4982 20 10C20 4.50185 15.5351 0 10 0ZM10 19.0775C5.01845 19.0775 0.95941 15.0184 0.95941 10.0369C0.95941 5.05535 5.01845 0.99631 10 0.99631C14.9815 0.99631 19.0406 5.05535 19.0406 10.0369C19.0775 14.9815 14.9815 19.0775 10 19.0775Z" fill="#C4C4C4"/>
</svg>
