<svg width="20" height="21" viewBox="0 0 20 21" fill="none" xmlns="http://www.w3.org/2000/svg">
<g clip-path="url(#clip0)">
<path d="M10 20.8374C4.46886 20.8374 0 16.3319 0 10.8374C0 5.30627 4.46886 0.837402 10 0.837402C15.4945 0.837402 20 5.30627 20 10.8374C20 16.3319 15.4945 20.8374 10 20.8374ZM10 1.89967C5.09157 1.89967 1.06227 5.92898 1.06227 10.8374C1.06227 15.7458 5.05494 19.7751 10 19.7751C14.9084 19.7751 18.9377 15.7825 18.9377 10.8374C18.9377 5.92898 14.9084 1.89967 10 1.89967Z" fill="#00A3E6"/>
<path d="M15.9707 9.33559C15.9707 7.90702 14.8352 6.77148 13.4066 6.77148L6.73991 6.77148C5.31134 6.77148 4.17581 7.90702 4.17581 9.33559L4.17581 12.4491C4.17581 13.8777 5.31134 15.0132 6.73991 15.0132L13.4066 15.0132C14.8352 15.0132 15.9707 13.8777 15.9707 12.4491V9.33559ZM11.7949 11.0206L9.1575 12.4858C9.04761 12.559 8.93772 12.4491 8.93772 12.3393V9.33559C8.93772 9.18907 9.04761 9.11581 9.1575 9.18907L11.8315 10.7275C11.9047 10.8008 11.9047 10.9839 11.7949 11.0206Z" fill="#00A3E6"/>
</g>
<defs>
<clipPath id="clip0">
<rect width="20" height="20" fill="white" transform="translate(0 0.837402)"/>
</clipPath>
</defs>
</svg>
